# xmcd
#
# Track frame offsets:
#	150
#	15015
#	40199
#
# Disc length: 1199 seconds
#
# Revision: 1
# Processed by: cddbd v1.5.2PL0 Copyright (c) Steve Scherf et al.
# Submitted via: audiograbber 1.83.01
#
DISCID=1104ad03
DTITLE=The BossHoss - Truck ´n´Roll Rules Special Edition (Mercedes- Benz)
DYEAR=2007
DGENRE=Country- Trash- Punk- Rock
TTITLE0=Truck ´n´Roll Rules (Star Mix)
TTITLE1=Truck ´n´Roll Rules
TTITLE2=Daten-CD
EXTD=
EXTT0=
EXTT1=
EXTT2=
PLAYORDER=
